<svg width="27" height="27" viewBox="0 0 27 27" fill="none" xmlns="http://www.w3.org/2000/svg">
<path d="M7.7147 15.4284C8.77981 15.4284 9.64328 14.5649 9.64328 13.4999C9.64328 12.4348 8.77981 11.5713 7.7147 11.5713C6.6496 11.5713 5.78613 12.4348 5.78613 13.4999C5.78613 14.5649 6.6496 15.4284 7.7147 15.4284Z" fill="#ABA4A3"/>
<path d="M13.5004 15.4284C14.5655 15.4284 15.429 14.5649 15.429 13.4999C15.429 12.4348 14.5655 11.5713 13.5004 11.5713C12.4353 11.5713 11.5718 12.4348 11.5718 13.4999C11.5718 14.5649 12.4353 15.4284 13.5004 15.4284Z" fill="#ABA4A3"/>
<path d="M21.2147 13.4999C21.2147 14.5649 20.3512 15.4284 19.2861 15.4284C18.221 15.4284 17.3576 14.5649 17.3576 13.4999C17.3576 12.4348 18.221 11.5713 19.2861 11.5713C20.3512 11.5713 21.2147 12.4348 21.2147 13.4999Z" fill="#ABA4A3"/>
</svg>
