<svg width="32" height="32" viewBox="0 0 32 32" fill="none" xmlns="http://www.w3.org/2000/svg">
<path d="M28.0002 4H4.00016C2.5335 4 1.3335 5.2 1.3335 6.66667V25.3333C1.3335 26.8 2.5335 28 4.00016 28H28.0002C29.4668 28 30.6668 26.8 30.6668 25.3333V6.66667C30.6668 5.2 29.4668 4 28.0002 4ZM28.0002 25.3333H4.00016V6.66667H28.0002V25.3333ZM10.6668 20C10.6668 17.7867 12.4535 16 14.6668 16C15.1335 16 15.5868 16.0933 16.0002 16.24V8H22.6668V10.6667H18.6668V20.04C18.6402 22.2267 16.8668 24 14.6668 24C12.4535 24 10.6668 22.2133 10.6668 20Z" fill="white"/>
</svg>
