<svg width="32" height="32" viewBox="0 0 32 32" fill="none" xmlns="http://www.w3.org/2000/svg">
<path d="M26.6665 2.6665H10.6665C9.19984 2.6665 7.99984 3.8665 7.99984 5.33317V21.3332C7.99984 22.7998 9.19984 23.9998 10.6665 23.9998H26.6665C28.1332 23.9998 29.3332 22.7998 29.3332 21.3332V5.33317C29.3332 3.8665 28.1332 2.6665 26.6665 2.6665ZM26.6665 19.3332C26.6665 20.4377 25.7711 21.3332 24.6665 21.3332H12.6665C11.5619 21.3332 10.6665 20.4377 10.6665 19.3332V7.33317C10.6665 6.2286 11.5619 5.33317 12.6665 5.33317H24.6665C25.7711 5.33317 26.6665 6.2286 26.6665 7.33317V19.3332ZM16.6665 19.9998C18.5065 19.9998 19.9998 18.5065 19.9998 16.6665V11.3332C19.9998 10.2286 20.8953 9.33317 21.9998 9.33317H22.6665C23.4029 9.33317 23.9998 8.73622 23.9998 7.99984C23.9998 7.26346 23.4029 6.6665 22.6665 6.6665H20.6665C19.5619 6.6665 18.6665 7.56193 18.6665 8.6665V11.8622C18.6665 12.7438 17.5481 13.3332 16.6665 13.3332C14.8265 13.3332 13.3332 14.8265 13.3332 16.6665C13.3332 18.5065 14.8265 19.9998 16.6665 19.9998ZM5.33317 9.33317C5.33317 8.59679 4.73622 7.99984 3.99984 7.99984C3.26346 7.99984 2.6665 8.59679 2.6665 9.33317V26.6665C2.6665 28.1332 3.8665 29.3332 5.33317 29.3332H22.6665C23.4029 29.3332 23.9998 28.7362 23.9998 27.9998C23.9998 27.2635 23.4029 26.6665 22.6665 26.6665H7.33317C6.2286 26.6665 5.33317 25.7711 5.33317 24.6665V9.33317Z" fill="white"/>
</svg>
